<?xml version="1.0" encoding="UTF-8" standalone="no"?>
<svg
   xmlns:dc="http://purl.org/dc/elements/1.1/"
   xmlns:cc="http://creativecommons.org/ns#"
   xmlns:rdf="http://www.w3.org/1999/02/22-rdf-syntax-ns#"
   xmlns:svg="http://www.w3.org/2000/svg"
   xmlns="http://www.w3.org/2000/svg"
   xmlns:xlink="http://www.w3.org/1999/xlink"
   xmlns:sodipodi="http://sodipodi.sourceforge.net/DTD/sodipodi-0.dtd"
   xmlns:inkscape="http://www.inkscape.org/namespaces/inkscape"
   id="svg346"
   height="96"
   width="96"
   version="1.1"
   inkscape:version="0.91 r13725"
   sodipodi:docname="amarok.svg">
  <sodipodi:namedview
     pagecolor="#ffffff"
     bordercolor="#666666"
     borderopacity="1"
     objecttolerance="10"
     gridtolerance="10"
     guidetolerance="10"
     inkscape:pageopacity="0"
     inkscape:pageshadow="2"
     inkscape:window-width="1366"
     inkscape:window-height="716"
     id="namedview81"
     showgrid="false"
     inkscape:zoom="4.9166667"
     inkscape:cx="45.928182"
     inkscape:cy="32.541388"
     inkscape:window-x="0"
     inkscape:window-y="24"
     inkscape:window-maximized="1"
     inkscape:current-layer="svg346" />
  <metadata
     id="metadata474">
    <rdf:RDF>
      <cc:Work
         rdf:about="">
        <dc:format>image/svg+xml</dc:format>
        <dc:type
           rdf:resource="http://purl.org/dc/dcmitype/StillImage" />
        <dc:title />
      </cc:Work>
    </rdf:RDF>
  </metadata>
  <defs
     id="defs348">
    <linearGradient
       id="linearGradient5498">
      <stop
         id="stop361"
         stop-color="#eee"
         offset="0" />
      <stop
         id="stop363"
         stop-color="#eee"
         stop-opacity="0"
         offset="1" />
    </linearGradient>
    <linearGradient
       id="linearGradient17492"
       y2="458.38"
       xlink:href="#linearGradient5498"
       gradientUnits="userSpaceOnUse"
       y1="-309.6"
       gradientTransform="matrix(0.09739666,0,0,0.09933479,6.4054818,5.5711069)"
       x2="370.21"
       x1="370.62" />
  </defs>
  <path
     inkscape:connector-curvature="0"
     id="path430"
     d="m 88.229848,47.981919 c 0,22.649882 -18.021175,41.031321 -40.227568,41.031321 -22.205252,0 -40.2275674,-18.382579 -40.2275674,-41.031321 0,-22.649882 18.0211754,-41.0313206 40.2275674,-41.0313206 22.205253,0 40.227568,18.3825786 40.227568,41.0313206 z"
     style="fill:#eeeeee;fill-opacity:1;stroke:#cccccc" />
  <path
     inkscape:connector-curvature="0"
     style="fill:#5928a5;fill-opacity:1;stroke:#cccccc;stroke-width:1.14007556;stroke-opacity:0.12000002"
     d="M 48,5.5700381 C 25.053698,5.5700381 6.4028277,24.594248 6.4028277,48 6.4028277,71.405752 25.053698,90.429962 48,90.429962 70.946302,90.429962 89.597172,71.405752 89.597172,48 89.597172,24.594248 70.946302,5.5700381 48,5.5700381 Z m 0,2.7989751 c 21.464203,0 38.853865,17.7381148 38.853865,39.6309868 0,18.495627 -12.411438,34.027044 -29.205529,38.401843 -0.169863,-0.985797 -0.880943,-2.097408 -0.826111,-2.990472 0.09822,-1.607164 0.181538,-3.721103 0.378541,-5.52892 0.197109,-1.807932 0.886486,-16.975798 3.446948,-20.993424 2.560039,-4.017285 9.877793,-8.83896 12.438402,-9.341049 2.560382,-0.502203 2.066387,-1.507789 2.066387,-2.411527 0,-0.903817 -0.392743,-2.911821 -1.08218,-3.213143 -0.689222,-0.301231 -3.380082,1.507119 -4.266377,1.707887 -0.886215,0.200824 -5.120497,0.503351 -5.711512,-0.50101 -0.590776,-1.004566 4.77717,-11.249272 5.466573,-12.45399 0.689438,-1.205402 0.986289,-2.812958 -0.293925,-4.520222 C 67.985461,24.44814 67.098675,22.7402 66.606389,22.7402 l -0.0023,0 c -1.623923,0 -4.774761,3.817378 -5.956449,4.420019 -1.181688,0.602701 -10.537184,7.431893 -11.423023,8.637409 -0.886215,1.205174 -2.069009,1.708126 -3.348972,1.607686 -1.279963,-0.100327 -5.326045,-0.142193 -6.704625,0.661332 -1.378807,0.80364 -7.671942,7.372841 -9.247527,8.17648 -1.57547,0.803297 -3.631173,1.215431 -4.61597,1.315986 -0.984558,0.100327 -4.246386,3.808116 -5.132567,4.511314 -0.886215,0.703199 -7.888756,3.793225 -8.87344,4.395527 -0.984763,0.602758 7.184061,9.042306 8.365751,9.243072 1.181688,0.201111 -1.121441,3.611076 -3.088448,4.774067 -0.145918,0.08627 -0.255696,0.189344 -0.37186,0.289473 C 11.762909,64.328542 9.146081,56.479612 9.146081,48 9.146081,26.107128 26.536883,8.3690132 47.999946,8.3690132 Z M 45.608514,41.604888 c 0.804445,-0.01345 1.353839,0.07348 1.353839,0.07348 0.450444,1.071214 -1.649578,4.437198 -3.60059,4.896535 -1.950555,0.458994 -6.452333,7.195416 -6.602196,5.66475 -0.150604,-1.530665 1.799306,-6.581894 4.050385,-8.877893 1.406854,-1.435056 3.457819,-1.734457 4.798562,-1.756874 z"
     id="path442" />
  <path
     inkscape:connector-curvature="0"
     id="path460"
     d="m 29.062204,51.060123 c -0.03012,-0.109447 -0.02408,-1.076345 0.01003,-1.528613 0.02408,-0.323553 0.04412,-0.430493 0.128749,-0.684729 0.261465,-0.785969 0.643743,-1.223416 1.196737,-1.369573 0.206262,-0.05472 0.318184,-0.110588 0.61645,-0.307821 0.612665,-0.405411 1.394655,-1.078625 2.646116,-2.277871 0.339571,-0.325423 1.717182,-1.707491 3.061331,-3.071249 1.344149,-1.363759 2.504404,-2.524242 2.578167,-2.578737 0.07386,-0.0545 0.182617,-0.112184 0.241696,-0.128168 0.431587,-0.116493 1.475372,-0.172972 4.122057,-0.223033 2.486961,-0.04709 3.545977,-0.09588 3.872609,-0.178695 0.338294,-0.08573 1.110205,-0.552013 2.666295,-1.610585 1.125117,-0.765367 3.519641,-2.454127 4.907227,-3.460927 0.372349,-0.270164 0.523842,-0.36511 0.582487,-0.36511 0.04359,0 0.08674,-0.01231 0.09586,-0.02736 0.0091,-0.01505 0.03508,-0.02736 0.05769,-0.02736 0.03378,0 0.03851,0.02793 0.02662,0.15749 -0.03051,0.332309 -0.04975,0.4006 -0.152178,0.53994 -0.279056,0.379633 -1.014097,0.992367 -1.880554,1.567718 -0.222463,0.147696 -0.654495,0.466199 -0.960081,0.707781 -3.081852,2.436342 -5.175487,3.878424 -6.080707,4.18841 -0.179482,0.06145 -0.248936,0.07 -0.572056,0.07 -0.623211,0 -1.339019,0.137778 -2.560496,0.492843 -1.800179,0.523329 -3.456253,1.209734 -4.326244,1.793111 -0.755551,0.506649 -1.362619,1.479134 -1.972559,3.159833 -0.239975,0.661244 -0.522976,1.638631 -0.863904,2.983692 -0.08496,0.335182 -0.162632,0.622824 -0.172653,0.639355 -0.01003,0.01596 -1.624038,0.380557 -3.586678,0.808997 -1.96264,0.428441 -3.589186,0.785398 -3.614496,0.793379 -0.0334,0.0114 -0.05193,-0.0114 -0.06718,-0.0627 z"
     style="fill:#6c41ae;fill-opacity:1;stroke:none" />
</svg>
