<?xml version="1.0" encoding="UTF-8" standalone="no"?>
<svg
   xmlns:dc="http://purl.org/dc/elements/1.1/"
   xmlns:cc="http://creativecommons.org/ns#"
   xmlns:rdf="http://www.w3.org/1999/02/22-rdf-syntax-ns#"
   xmlns:svg="http://www.w3.org/2000/svg"
   xmlns="http://www.w3.org/2000/svg"
   xmlns:sodipodi="http://sodipodi.sourceforge.net/DTD/sodipodi-0.dtd"
   xmlns:inkscape="http://www.inkscape.org/namespaces/inkscape"
   id="svg1504"
   height="96"
   width="96"
   version="1.1"
   inkscape:version="0.91 r13725"
   sodipodi:docname="brasero.svg">
  <sodipodi:namedview
     pagecolor="#ffffff"
     bordercolor="#666666"
     borderopacity="1"
     objecttolerance="10"
     gridtolerance="10"
     guidetolerance="10"
     inkscape:pageopacity="0"
     inkscape:pageshadow="2"
     inkscape:window-width="1366"
     inkscape:window-height="716"
     id="namedview56"
     showgrid="false"
     inkscape:zoom="2.4583333"
     inkscape:cx="0.51246707"
     inkscape:cy="50.972687"
     inkscape:window-x="0"
     inkscape:window-y="24"
     inkscape:window-maximized="1"
     inkscape:current-layer="svg1504" />
  <metadata
     id="metadata1593">
    <rdf:RDF>
      <cc:Work
         rdf:about="">
        <dc:format>image/svg+xml</dc:format>
        <dc:type
           rdf:resource="http://purl.org/dc/dcmitype/StillImage" />
        <dc:title />
      </cc:Work>
    </rdf:RDF>
  </metadata>
  <defs
     id="defs1506">
    <linearGradient
       id="linearGradient3112"
       x2="93.61"
       gradientUnits="userSpaceOnUse"
       x1="26.18"
       gradientTransform="matrix(0,0.28234,-0.33917,0,68.997001,29.81765)">
      <stop
         id="stop1509"
         stop-color="#fff"
         stop-opacity=".203"
         offset="0" />
      <stop
         id="stop1511"
         stop-color="#fff"
         stop-opacity=".68"
         offset="1" />
    </linearGradient>
    <linearGradient
       id="linearGradient3129-3"
       x2="123"
       gradientUnits="userSpaceOnUse"
       x1="5"
       gradientTransform="matrix(0.48435,0.27965,-0.27964,0.48437,34.898001,-1.97235)">
      <stop
         id="stop1514"
         stop-color="#fff"
         stop-opacity="0"
         offset="0" />
      <stop
         id="stop1516"
         stop-color="#fff"
         stop-opacity="0"
         offset=".15" />
      <stop
         id="stop1518"
         stop-color="#fff"
         offset=".5" />
      <stop
         id="stop1520"
         stop-color="#fff"
         stop-opacity="0"
         offset=".85" />
      <stop
         id="stop1522"
         stop-color="#fff"
         stop-opacity="0"
         offset="1" />
    </linearGradient>
    <linearGradient
       id="linearGradient3132"
       gradientUnits="userSpaceOnUse"
       y1="89.13"
       gradientTransform="matrix(1.0096,0,0,1.2128,-12.467,-28.37235)"
       x2="0"
       y2="34.607">
      <stop
         id="stop1525"
         stop-color="#b8abbd"
         offset="0" />
      <stop
         id="stop1527"
         stop-color="#dddbde"
         offset="1" />
    </linearGradient>
    <radialGradient
       id="radialGradient3138"
       cx="59.894"
       gradientUnits="userSpaceOnUse"
       cy="61.922"
       r="33.714"
       gradientTransform="matrix(0,0.26689,-0.26852,0,64.627001,30.74765)">
      <stop
         id="stop1535"
         stop-opacity="0"
         offset="0" />
      <stop
         id="stop1537"
         stop-opacity="0"
         offset=".85" />
      <stop
         id="stop1539"
         offset="1" />
    </radialGradient>
    <linearGradient
       id="linearGradient4665"
       y2="1083.2"
       gradientUnits="userSpaceOnUse"
       y1="998.9"
       gradientTransform="matrix(1.3563,0,0,1.2867,-22.561,-1249.7223)"
       x2="84.67"
       x1="66.904">
      <stop
         id="stop1547"
         stop-color="#ffc64e"
         offset="0" />
      <stop
         id="stop1549"
         stop-color="#f30000"
         stop-opacity=".831"
         offset=".3" />
      <stop
         id="stop1551"
         stop-color="#fb0000"
         stop-opacity=".476"
         offset=".438" />
      <stop
         id="stop1553"
         stop-color="#ffb56f"
         stop-opacity="0"
         offset="1" />
    </linearGradient>
  </defs>
  <rect
     rx="11"
     y="5.5"
     x="5.5"
     height="85"
     width="85"
     id="rect4244"
     style="opacity:1;fill:#f54853;fill-opacity:1;stroke:#000000;stroke-width:1;stroke-linecap:butt;stroke-linejoin:miter;stroke-miterlimit:4;stroke-dasharray:none;stroke-dashoffset:0;stroke-opacity:0.04705882" />
  <path
     style="opacity:0.555;fill:#eea217;fill-opacity:1;stroke:none;stroke-width:1.44400001;stroke-linecap:butt;stroke-linejoin:miter;stroke-miterlimit:4;stroke-dasharray:none;stroke-opacity:1"
     d="M 16.5 5.5 C 10.406 5.5 5.5 10.406 5.5 16.5 L 5.5 48.917969 A 104.74577 47.18644 0 0 0 15.314453 50.595703 C 15.261948 50.132705 15.116938 49.686139 15.083984 49.220703 C 14.934334 47.107055 14.986539 44.970719 15.25 42.84375 C 15.513461 40.716781 15.986885 38.599242 16.679688 36.519531 C 17.37249 34.43982 18.285453 32.397656 19.423828 30.425781 C 20.562328 28.453781 21.873473 26.643882 23.328125 25.003906 C 24.782777 23.363931 26.379609 21.895242 28.089844 20.603516 C 29.800078 19.311789 31.624051 18.196785 33.529297 17.269531 C 35.434543 16.342278 37.42125 15.603197 39.460938 15.056641 C 41.500625 14.510084 43.593473 14.157447 45.707031 14.007812 C 47.82059 13.858178 49.955172 13.910317 52.082031 14.173828 C 54.208891 14.437339 56.32666 14.912588 58.40625 15.605469 C 60.48584 16.29835 62.526297 17.209181 64.498047 18.347656 L 64.498047 18.349609 C 66.469797 19.487984 68.280131 20.79932 69.919922 22.253906 C 71.559713 23.708492 73.030664 25.305406 74.322266 27.015625 C 75.613867 28.725844 76.727115 30.547852 77.654297 32.453125 C 78.581479 34.358398 79.322609 36.346969 79.869141 38.386719 C 80.415672 40.426469 80.766365 42.519164 80.916016 44.632812 C 81.049665 46.520463 80.962729 48.425315 80.767578 50.326172 A 104.74577 47.18644 0 0 0 90.5 48.634766 L 90.5 16.5 C 90.5 10.406 85.594 5.5 79.5 5.5 L 16.5 5.5 z "
     id="path6269" />
  <path
     id="path1571"
     d="m 48.000001,11.89765 c -19.744,0 -35.844,16.099 -35.844,35.844 0,19.745 16.099,35.844 35.844,35.844 19.744,0 35.844,-16.099 35.844,-35.844 0,-19.745 -16.099,-35.844 -35.844,-35.844 z m 0,26.938 c 4.9654,0 8.9062,3.9406 8.9062,8.9061 0,4.9656 -3.9409,8.9063 -8.9062,8.9063 -4.9654,0 -8.9062,-3.9407 -8.9062,-8.9063 0,-4.9654 3.9409,-8.9061 8.9062,-8.9061 z"
     style="opacity:0.05;fill-rule:evenodd;stroke:#000000;stroke-opacity:0.04705882"
     inkscape:connector-curvature="0" />
  <path
     id="path1573"
     d="m 48.000001,14.72765 c -18.215,0 -32.998,14.784 -32.998,32.999 0,18.215 14.783,32.999 32.998,32.999 18.215,0 32.998,-14.784 32.998,-32.999 0,-18.215 -14.783,-32.999 -32.998,-32.999 z m 0,21.254 c 6.4832,0 11.745,5.262 11.745,11.745 0,6.4835 -5.2618,11.745 -11.745,11.745 -6.4832,0 -11.745,-5.2618 -11.745,-11.745 0,-6.4833 5.2618,-11.745 11.745,-11.745 z"
     style="opacity:0.3;fill-rule:evenodd;stroke:#000000;stroke-opacity:0.04705882"
     inkscape:connector-curvature="0" />
  <path
     id="path1575"
     d="m 48.000001,31.48765 c -8.4117,0 -15.241,6.8291 -15.241,15.241 0,8.412 6.8288,15.241 15.241,15.241 8.4117,0 15.241,-6.829 15.241,-15.241 0,-8.4119 -6.8288,-15.241 -15.241,-15.241 z m 0,10.767 c 2.4698,0 4.4743,2.0044 4.4743,4.4743 0,2.4699 -2.0045,4.4744 -4.4743,4.4744 -2.4698,0 -4.4743,-2.0045 -4.4743,-4.4744 0,-2.4698 2.0045,-4.4743 4.4743,-4.4743 z"
     style="opacity:0.3;fill:#ffffff;fill-rule:evenodd;stroke:#000000;stroke-opacity:0.04705882"
     inkscape:connector-curvature="0" />
  <path
     id="path1577"
     d="m 48.000001,55.41765 a 8.7232,8.7235 0 1 1 0,-17.447 8.7232,8.7235 0 0 1 0,17.447 z"
     style="opacity:0.3;fill:url(#radialGradient3138);fill-rule:evenodd;stroke:#000000;stroke-opacity:0.04705882"
     inkscape:connector-curvature="0" />
  <path
     id="path1579"
     d="m 48.000001,50.81765 a 4.0684,4.0686 0 1 1 0,-8.1368 4.0684,4.0686 0 0 1 0,8.1368 z"
     style="opacity:0.6;fill:none;stroke:#000000;stroke-linecap:round;stroke-opacity:0.04705882"
     inkscape:connector-curvature="0" />
  <path
     id="path1581"
     d="m 48.000001,13.72765 c -18.215,0 -32.998,14.784 -32.998,32.999 0,18.215 14.783,32.999 32.998,32.999 18.215,0 32.998,-14.784 32.998,-32.999 0,-18.215 -14.783,-32.999 -32.998,-32.999 z m 0,21.254 c 6.4832,0 11.745,5.262 11.745,11.745 0,6.4835 -5.2617,11.745 -11.745,11.745 -6.4832,0 -11.745,-5.2618 -11.745,-11.745 0,-6.4833 5.2618,-11.745 11.745,-11.745 z"
     style="fill:url(#linearGradient3132);fill-rule:evenodd;stroke:#000000;stroke-opacity:0.04705882"
     inkscape:connector-curvature="0" />
  <path
     id="path1583"
     d="m 64.499001,18.34765 c -15.774,-9.1078 -35.968,-3.697 -45.076,12.079 -9.107,15.775 -3.696,35.97 12.078,45.077 15.774,9.108 35.968,3.697 45.076,-12.078 9.107,-15.775 3.696,-35.97 -12.078,-45.077 z m -10.626,18.406 c 5.6146,3.2417 7.5406,10.43 4.299,16.044 -3.2416,5.6148 -10.429,7.5408 -16.044,4.2992 -5.6146,-3.2418 -7.5406,-10.43 -4.299,-16.044 3.2416,-5.6149 10.429,-7.5409 16.044,-4.2991 z"
     style="opacity:0.8;fill:#d7d3d8;fill-rule:evenodd;stroke:#000000;stroke-opacity:0.04705882;fill-opacity:1"
     inkscape:connector-curvature="0" />
  <path
     id="path1585"
     d="m 62.739001,46.81765 a 14.74,14.74 0 0 1 -29.479,0 14.74,14.74 0 1 1 29.479,0 z"
     style="opacity:0.15;fill:none;stroke:#000000;stroke-width:3;stroke-linecap:round;stroke-opacity:0.04705882"
     inkscape:connector-curvature="0" />
  <path
     id="path1587"
     d="m 57.777001,46.71765 c 0,-5.3018 -4.3304,-9.6877 -9.7828,-9.6877 -5.4524,0 -9.7722,4.3859 -9.7722,9.6877 0,5.3021 4.3199,9.6792 9.7722,9.6792 5.4524,0 9.7828,-4.3771 9.7828,-9.6792 z m -1.1023,0 c 0,4.8916 -3.9397,8.7704 -8.6805,8.7704 -4.7408,0 -8.6699,-3.8788 -8.6699,-8.7704 0,-4.8913 3.9291,-8.7789 8.6699,-8.7789 4.7408,0 8.6805,3.8876 8.6805,8.7789 z"
     style="color:#000000;opacity:0.5;fill:url(#linearGradient3112);stroke:#000000;stroke-opacity:0.04705882"
     inkscape:connector-curvature="0" />
  <path
     id="path1589"
     d="m 51.603001,65.21765 c 1.1541,2.748 1.25,6.7371 5.1251,6.295 -1.3485,-7.4238 -0.51712,-14.748 2.6846,-18.742 -1.0828,4.3889 1.0797,7.932 2.8066,11.589 0.49013,-13.388 6.8037,-21.103 4.8034,-37.378 2.9481,7.1001 6.515,15.576 5.6778,23.523 3.2897,-3.0041 1.4442,-9.6575 4.9979,-16.511 -1.1112,6.7751 5.3246,15.255 -2.9104,28.506 2.6722,-0.8221 4.2172,-2.8918 5.9792,-4.7212 -1.165,8.4579 -4.4889,14.385 -9.8841,17.883 l 4.759,2.2891 c -7.1385,8.8164 -12.813,-3.9712 -19.829,6.1518 -5.2346,-6.8301 -5.0407,-13.425 -4.2099,-18.885 z"
     style="fill:#eb3a3c;stroke:#000000;stroke-opacity:0.04705882;fill-opacity:1"
     inkscape:connector-curvature="0" />
  <path
     style="opacity:0.579;fill:#f1f1f1;fill-opacity:1;stroke:none;stroke-width:1.44400001;stroke-linecap:butt;stroke-linejoin:miter;stroke-miterlimit:4;stroke-dasharray:none;stroke-opacity:1"
     d="M 55.964844 14.904297 C 53.722351 20.919082 50.835259 28.330251 47.785156 35.195312 C 49.85147 35.154901 51.953783 35.645826 53.873047 36.753906 C 55.862454 37.90253 57.377579 39.551312 58.375 41.445312 C 62.862352 35.444948 67.910113 29.30692 72.091797 24.375 C 69.923962 22.059295 67.386212 20.01707 64.498047 18.349609 L 64.498047 18.347656 C 61.759983 16.766717 58.888162 15.632059 55.964844 14.904297 z M 38.037109 53.140625 C 34.211362 58.701938 29.32986 64.893239 24.800781 70.400391 C 26.763302 72.338488 29.002536 74.060886 31.501953 75.503906 C 33.890967 76.883337 36.382004 77.922596 38.919922 78.650391 C 41.504471 72.02777 44.52893 64.732025 47.523438 58.65625 C 45.682794 58.583556 43.834073 58.082068 42.128906 57.097656 C 40.400384 56.099629 39.023272 54.725639 38.037109 53.140625 z "
     id="rect7091" />
</svg>
