<?xml version="1.0" encoding="UTF-8" standalone="no"?>
<svg
   xmlns:dc="http://purl.org/dc/elements/1.1/"
   xmlns:cc="http://creativecommons.org/ns#"
   xmlns:rdf="http://www.w3.org/1999/02/22-rdf-syntax-ns#"
   xmlns:svg="http://www.w3.org/2000/svg"
   xmlns="http://www.w3.org/2000/svg"
   xmlns:sodipodi="http://sodipodi.sourceforge.net/DTD/sodipodi-0.dtd"
   xmlns:inkscape="http://www.inkscape.org/namespaces/inkscape"
   id="svg2"
   height="96"
   width="96"
   version="1.1"
   inkscape:version="0.91 r13725"
   sodipodi:docname="google-pacman.svg">
  <sodipodi:namedview
     pagecolor="#ffffff"
     bordercolor="#666666"
     borderopacity="1"
     objecttolerance="10"
     gridtolerance="10"
     guidetolerance="10"
     inkscape:pageopacity="0"
     inkscape:pageshadow="2"
     inkscape:window-width="1366"
     inkscape:window-height="716"
     id="namedview32"
     showgrid="false"
     inkscape:zoom="3.4766083"
     inkscape:cx="7.8474247"
     inkscape:cy="72.321505"
     inkscape:window-x="0"
     inkscape:window-y="24"
     inkscape:window-maximized="1"
     inkscape:current-layer="svg2" />
  <metadata
     id="metadata61">
    <rdf:RDF>
      <cc:Work
         rdf:about="">
        <dc:format>image/svg+xml</dc:format>
        <dc:type
           rdf:resource="http://purl.org/dc/dcmitype/StillImage" />
        <dc:title />
      </cc:Work>
    </rdf:RDF>
  </metadata>
  <defs
     id="defs4" />
  <rect
     style="opacity:1;fill:#001f35;fill-opacity:1;stroke:#000000;stroke-width:1.4435277;stroke-linecap:butt;stroke-linejoin:miter;stroke-miterlimit:4;stroke-dasharray:none;stroke-dashoffset:0;stroke-opacity:0.04705882"
     id="rect4181"
     width="84.556473"
     height="84.556473"
     x="5.7217636"
     y="5.7217636"
     rx="10"
     ry="10" />
  <path
     id="path3042"
     style="fill:#ffb300;fill-rule:evenodd;fill-opacity:1;stroke:#000000;stroke-opacity:0.04705882"
     d="m 48.960263,18.000234 c -11.159,-0.047 -21.919,6.189 -27.132,16.893 -7.254,14.893 -1.031,32.817 13.862,40.07 14.892,7.254 32.816,1.068 40.07,-13.824 l -26.948,-13.123 28.389,-9.722 c -2.582,-7.553 -8.09,-13.73 -15.266,-17.226 -4.189,-2.04 -8.608,-3.049 -12.975,-3.068 z m 13.381,10.868 c 2.0956,-0.0089 3.9903,1.4543 4.4358,3.5856 0.50911,2.4357 -1.0389,4.8138 -3.4747,5.323 -2.4357,0.50911 -4.8508,-1.0389 -5.3599,-3.4747 -0.50911,-2.4357 1.0759,-4.8508 3.5117,-5.3599 0.30446,-0.06364 0.58779,-0.07266 0.88716,-0.07393 z"
     inkscape:connector-curvature="0" />
</svg>
