<?xml version="1.0" encoding="UTF-8" standalone="no"?>
<svg
   xmlns:dc="http://purl.org/dc/elements/1.1/"
   xmlns:cc="http://creativecommons.org/ns#"
   xmlns:rdf="http://www.w3.org/1999/02/22-rdf-syntax-ns#"
   xmlns:svg="http://www.w3.org/2000/svg"
   xmlns="http://www.w3.org/2000/svg"
   xmlns:sodipodi="http://sodipodi.sourceforge.net/DTD/sodipodi-0.dtd"
   xmlns:inkscape="http://www.inkscape.org/namespaces/inkscape"
   id="svg2243"
   height="96"
   width="96"
   version="1.1"
   inkscape:version="0.91 r13725"
   sodipodi:docname="gparted.svg">
  <sodipodi:namedview
     pagecolor="#ffffff"
     bordercolor="#666666"
     borderopacity="1"
     objecttolerance="10"
     gridtolerance="10"
     guidetolerance="10"
     inkscape:pageopacity="0"
     inkscape:pageshadow="2"
     inkscape:window-width="1366"
     inkscape:window-height="716"
     id="namedview80"
     showgrid="false"
     inkscape:zoom="8"
     inkscape:cx="52.322941"
     inkscape:cy="42.200583"
     inkscape:window-x="0"
     inkscape:window-y="24"
     inkscape:window-maximized="1"
     inkscape:current-layer="svg2243" />
  <metadata
     id="metadata2370">
    <rdf:RDF>
      <cc:Work
         rdf:about="">
        <dc:format>image/svg+xml</dc:format>
        <dc:type
           rdf:resource="http://purl.org/dc/dcmitype/StillImage" />
      </cc:Work>
    </rdf:RDF>
  </metadata>
  <defs
     id="defs2245">
    <linearGradient
       id="linearGradient4169">
      <stop
         id="stop4171"
         style="stop-color:#f5f5f5;stop-opacity:1"
         offset="0" />
      <stop
         id="stop4173"
         style="stop-color:#cbcbcb"
         offset="1" />
    </linearGradient>
    <linearGradient
       id="linearGradient6699">
      <stop
         offset="0"
         style="stop-color:#f31b79;stop-opacity:1"
         id="stop6701" />
      <stop
         offset="1"
         style="stop-color:#5326c6;stop-opacity:1"
         id="stop6295" />
    </linearGradient>
    <linearGradient
       id="linearGradient3865">
      <stop
         offset="0"
         style="stop-color:#ec9013;stop-opacity:1"
         id="stop3867" />
      <stop
         offset="1"
         style="stop-color:#fff100;stop-opacity:1"
         id="stop3869-4" />
    </linearGradient>
    <linearGradient
       id="linearGradient6711-3">
      <stop
         offset="0"
         style="stop-color:#00dcf6;stop-opacity:1"
         id="stop6713-9" />
      <stop
         offset="1"
         style="stop-color:#0020ce;stop-opacity:1"
         id="stop6715-2" />
    </linearGradient>
    <linearGradient
       id="linearGradient6719-4">
      <stop
         offset="0"
         style="stop-color:#4aab2a;stop-opacity:1"
         id="stop6721-4" />
      <stop
         offset="1"
         style="stop-color:#66e88c;stop-opacity:1"
         id="stop6723-4" />
    </linearGradient>
    <clipPath
       id="clipPath3274"
       clipPathUnits="userSpaceOnUse">
      <path
         id="path3276"
         d="m 32.336274,1.7343405 c -14.941149,0 -27.0533128,12.1121735 -27.0533128,27.0533125 0,14.941139 12.1121638,27.053313 27.0533128,27.053313 14.941129,0 27.053312,-12.112174 27.053312,-27.053313 0,-14.941139 -12.112183,-27.0533125 -27.053312,-27.0533125 z m 0,18.0355425 c 4.980389,0 9.017767,4.037391 9.017767,9.01777 0,4.98038 -4.037378,9.017773 -9.017767,9.017773 -4.980389,0 -9.017768,-4.037393 -9.017768,-9.017773 0,-4.980379 4.037379,-9.01777 9.017768,-9.01777 z m 0,2.254442 c -3.73528,0 -6.763328,3.02805 -6.763328,6.763328 0,3.735278 3.028048,6.763328 6.763328,6.763328 3.73528,0 6.763328,-3.02805 6.763328,-6.763328 0,-3.735278 -3.028048,-6.763328 -6.763328,-6.763328 z m 0,2.254444 c 2.49019,0 4.508888,2.018699 4.508888,4.508884 0,2.490187 -2.018698,4.508886 -4.508888,4.508886 -2.49019,0 -4.508889,-2.018699 -4.508889,-4.508886 0,-2.490185 2.018699,-4.508884 4.508889,-4.508884 z"
         style="color:#bebebe;display:inline;overflow:visible;visibility:visible;fill:url(#linearGradient3278);fill-opacity:1;fill-rule:nonzero;stroke:none;stroke-width:1;marker:none;enable-background:accumulate"
         inkscape:connector-curvature="0"
         sodipodi:nodetypes="ssssssssssssssssssss" />
    </clipPath>
  </defs>
  <rect
     rx="11"
     y="5.5"
     x="5.5"
     height="85"
     width="85"
     id="rect4244"
     style="opacity:1;fill:#dddddd;fill-opacity:1;stroke:#cccccc;stroke-width:1;stroke-linecap:butt;stroke-linejoin:miter;stroke-miterlimit:4;stroke-dasharray:none;stroke-dashoffset:0;stroke-opacity:0.12000002" />
  <g
     id="g4223"
     transform="translate(115.5944,19.723307)" />
  <circle
     style="opacity:1;fill:#000000;fill-opacity:0.07843138;fill-rule:nonzero;stroke:none;stroke-width:2.07094407;stroke-linecap:butt;stroke-miterlimit:4;stroke-dasharray:none;stroke-opacity:0.04705882"
     id="path4433"
     cx="48"
     cy="48"
     r="33.5" />
  <path
     style="display:inline;fill:#b81f95;fill-opacity:1;fill-rule:nonzero;stroke:#cccccc;stroke-width:1;stroke-miterlimit:4;stroke-dasharray:none;stroke-opacity:0.04705882"
     d="M 48 14.5 A 33.5 33.5 0 0 0 14.5 48 A 33.5 33.5 0 0 0 48 81.5 A 33.5 33.5 0 0 0 81.5 48 A 33.5 33.5 0 0 0 48 14.5 z "
     id="path3236" />
  <path
     style="fill:#f8cf07;fill-opacity:1;stroke:none;stroke-width:1;stroke-miterlimit:4;stroke-dasharray:none;stroke-opacity:0.04705882"
     d="M 48 48 L 15.654297 56.666016 A 33.5 33.5 0 0 0 25.65625 72.912109 C 34.08039 65.630596 42.081723 57.906703 48 48 z "
     id="path3238" />
  <path
     style="fill:#0089e4;fill-opacity:1;stroke:none;stroke-width:1;stroke-miterlimit:4;stroke-dasharray:none;stroke-opacity:0.04705882"
     d="M 48 48 C 45.32544 59.221406 45.665096 70.331245 46.46875 81.423828 A 33.5 33.5 0 0 0 48 81.5 A 33.5 33.5 0 0 0 80.320312 56.660156 L 48 48 z "
     id="path3240" />
  <path
     style="fill:#57c859;fill-opacity:1;stroke:none;stroke-width:1;stroke-miterlimit:4;stroke-dasharray:none;stroke-opacity:0.04705882"
     d="M 48 48 L 24.326172 71.673828 A 33.5 33.5 0 0 0 48 81.5 L 48 48 z "
     id="path3242" />
</svg>
