<?xml version="1.0" encoding="UTF-8" standalone="no"?>
<svg
   xmlns:dc="http://purl.org/dc/elements/1.1/"
   xmlns:cc="http://creativecommons.org/ns#"
   xmlns:rdf="http://www.w3.org/1999/02/22-rdf-syntax-ns#"
   xmlns:svg="http://www.w3.org/2000/svg"
   xmlns="http://www.w3.org/2000/svg"
   xmlns:xlink="http://www.w3.org/1999/xlink"
   xmlns:sodipodi="http://sodipodi.sourceforge.net/DTD/sodipodi-0.dtd"
   xmlns:inkscape="http://www.inkscape.org/namespaces/inkscape"
   height="96"
   width="96"
   id="svg2"
   version="1.1"
   inkscape:version="0.91 r13725"
   sodipodi:docname="applications-internet.svg">
  <metadata
     id="metadata77">
    <rdf:RDF>
      <cc:Work
         rdf:about="">
        <dc:format>image/svg+xml</dc:format>
        <dc:type
           rdf:resource="http://purl.org/dc/dcmitype/StillImage" />
      </cc:Work>
    </rdf:RDF>
  </metadata>
  <sodipodi:namedview
     pagecolor="#ffffff"
     bordercolor="#666666"
     borderopacity="1"
     objecttolerance="10"
     gridtolerance="10"
     guidetolerance="10"
     inkscape:pageopacity="0"
     inkscape:pageshadow="2"
     inkscape:window-width="1366"
     inkscape:window-height="716"
     id="namedview75"
     showgrid="false"
     inkscape:zoom="6.9532167"
     inkscape:cx="57.532548"
     inkscape:cy="41.45145"
     inkscape:window-x="0"
     inkscape:window-y="24"
     inkscape:window-maximized="1"
     inkscape:current-layer="svg2" />
  <defs
     id="defs4">
    <linearGradient
       id="linearGradient3737">
      <stop
         stop-color="#fff"
         offset="0"
         id="stop7" />
      <stop
         stop-color="#fff"
         stop-opacity="0"
         offset="1"
         id="stop9" />
    </linearGradient>
    <radialGradient
       id="radialGradient3169"
       cx="63.98"
       gradientUnits="userSpaceOnUse"
       cy="61.949"
       r="58.02"
       gradientTransform="matrix(1.09,0,0,0.81096,-21.45722,-3.4431017)">
      <stop
         stop-color="#7bb8f0"
         offset="0"
         id="stop12" />
      <stop
         stop-color="#b5d5f2"
         stop-opacity=".122"
         offset="1"
         id="stop14" />
    </radialGradient>
    <radialGradient
       id="radialGradient4103"
       gradientUnits="userSpaceOnUse"
       cy="67.13"
       r="3.125"
       cx="74.38">
      <stop
         stop-color="#fff"
         offset="0"
         id="stop22" />
      <stop
         stop-color="#fff"
         offset=".306"
         id="stop24" />
      <stop
         stop-color="#fff"
         stop-opacity=".641"
         offset=".519"
         id="stop26" />
      <stop
         stop-color="#fff"
         stop-opacity="0"
         offset="1"
         id="stop28" />
    </radialGradient>
    <radialGradient
       id="radialGradient3471"
       cx="63.875"
       xlink:href="#linearGradient3737"
       gradientUnits="userSpaceOnUse"
       cy="2.217"
       r="58.38"
       gradientTransform="matrix(0.84391,0,0,0.33117,-5.816,32.793)" />
    <radialGradient
       id="radialGradient3468"
       cx="64.23"
       xlink:href="#linearGradient3737"
       gradientUnits="userSpaceOnUse"
       cy="68.45"
       r="43.77"
       gradientTransform="matrix(0.97474,0,0,0.92611,-14.268,-12.601)" />
    <radialGradient
       id="radialGradient3465"
       cx="49.23"
       xlink:href="#linearGradient3737"
       gradientUnits="userSpaceOnUse"
       cy="70.61"
       r="25.484"
       gradientTransform="matrix(0.51922,-0.47906,1.2027,1.3,-72.74,-19.888)" />
    <radialGradient
       id="radialGradient3462"
       cx="69.75"
       xlink:href="#linearGradient3737"
       gradientUnits="userSpaceOnUse"
       cy="75.974"
       r="58.5"
       gradientTransform="matrix(0.7069,0,0,0.26398,2.935,34.09)" />
    <path
       id="SVGCleanerId_0"
       d="m77.5 67.125a3.125 3.125 0 1 1 -6.25 0 3.125 3.125 0 1 1 6.25 0z"
       fill-rule="evenodd"
       fill="url(#radialGradient4103)" />
    <linearGradient
       id="linearGradient2867-449-88-871-390-598-476-591-434-148-57-177-7-4-9-9-2-2-0-8-0">
      <stop
         offset="0"
         style="stop-color:#54bfec;stop-opacity:1"
         id="stop3750-6-3-7-0-5-3-5-7" />
      <stop
         offset="0.26238"
         style="stop-color:#55c1ec;stop-opacity:1"
         id="stop3752-3-7-7-6-4-4-3-4" />
      <stop
         offset="0.704952"
         style="stop-color:#3689e6;stop-opacity:1"
         id="stop3754-1-7-4-6-36-7-7-2-4" />
      <stop
         offset="1"
         style="stop-color:#2b63a0;stop-opacity:1"
         id="stop3756-7-5-7-1-4-3-1-7" />
    </linearGradient>
  </defs>
  <rect
     rx="11"
     y="5.5"
     x="5.5"
     height="85"
     width="85"
     id="rect4244"
     style="opacity:1;fill:#3d95e7;fill-opacity:1;stroke:#000000;stroke-width:1;stroke-linecap:butt;stroke-linejoin:miter;stroke-miterlimit:4;stroke-dasharray:none;stroke-dashoffset:0;stroke-opacity:0.04705882" />
  <path
     style="opacity:0.8;fill:#65abeb;fill-opacity:1"
     d="M 50.105469 7.6132812 C 49.59438 7.5941953 49.106884 7.6247469 48.771484 7.7011719 L 35.396484 7.7011719 C 37.046584 9.8390719 35.509137 13.408447 37.998047 13.373047 C 39.209947 15.026147 35.582172 13.866635 38.201172 15.140625 C 39.707272 16.285025 36.609429 16.939797 38.474609 17.966797 C 36.324909 19.036997 38.823262 23.564166 40.419922 24.697266 C 43.047922 26.831766 41.581372 20.178131 44.513672 19.832031 C 46.107072 18.077031 48.905078 16.951047 50.892578 15.185547 C 48.950278 15.033417 47.81675 13.867031 49.65625 13.144531 C 53.04165 16.491531 50.504859 11.558244 48.630859 10.777344 C 50.444259 10.220824 52.208631 10.629167 51.957031 9.1855469 C 53.394256 8.1710969 51.638736 7.6705391 50.105469 7.6132812 z M 8.265625 9.2089844 C 7.2625253 10.341772 6.4842788 11.678205 6.015625 13.158203 C 6.3032577 13.324035 6.7707331 13.132401 7.4375 12.283203 C 7.9918224 11.101633 10.373111 9.6996028 8.265625 9.2089844 z M 19.042969 9.2949219 C 17.630669 11.431422 19.246885 13.143009 20.421875 10.537109 C 21.253585 9.4489097 19.804939 9.3348219 19.042969 9.2949219 z M 22.570312 9.7734375 C 19.841513 10.993637 21.899257 13.839856 21.966797 14.472656 C 24.841397 15.432096 26.439844 13.844741 27.527344 16.556641 C 30.262544 18.077541 27.472013 20.719903 26.445312 21.408203 C 28.294612 19.854303 31.849869 25.633078 30.917969 22.580078 C 29.806169 21.796888 33.902924 23.838369 31.777344 21.292969 C 29.821244 18.252469 31.933132 19.932958 32.757812 20.642578 C 35.562713 18.215978 29.583772 17.923081 31.076172 15.425781 C 29.767172 14.403981 28.052328 11.307109 25.736328 11.912109 C 24.186328 13.846809 25.522047 7.6983909 23.248047 10.775391 C 23.130157 12.495391 23.205779 14.676976 22.542969 11.697266 C 22.098899 11.175626 23.307013 9.9643906 22.570312 9.7753906 L 22.570312 9.7734375 z M 17.005859 9.796875 C 15.173859 10.386055 15.272391 12.773597 17.525391 13.029297 C 18.296391 12.181137 17.830859 9.957575 17.005859 9.796875 z M 9.8574219 10.560547 C 7.4784216 11.104347 8.4493341 12.953609 9.1777344 13.474609 C 6.2328341 14.186289 13.673723 14.385217 9.9707031 14.835938 C 6.8899028 16.022937 12.937588 17.421072 13.929688 16.013672 C 17.734088 16.911302 14.066372 13.075394 13.732422 10.996094 C 12.119622 9.326194 13.669237 14.845578 12.210938 11.173828 C 11.702148 12.264228 10.083922 11.335817 9.8574219 10.560547 z M 85.765625 10.789062 C 85.682412 10.771518 85.582214 10.773316 85.458984 10.798828 C 82.266584 12.004228 87.4428 16.554416 86.15625 12.416016 C 86.044101 11.978778 86.348119 10.911877 85.765625 10.789062 z M 18.792969 12.632812 C 16.498869 14.712813 21.709656 16.432722 18.134766 17.982422 C 17.598746 16.050722 16.676059 18.948662 14.630859 17.388672 C 11.114959 18.800972 9.3166472 16.652088 6.3730469 15.179688 C 6.0103693 15.136129 5.7540816 15.183043 5.5683594 15.292969 C 5.5253503 15.68985 5.5 16.091311 5.5 16.5 L 5.5 33.107422 C 6.3306283 33.963996 5.9959034 33.698126 5.5 33.306641 L 5.5 35.125 C 5.7466458 37.938424 5.5042692 41.110663 8.4824219 42.554688 C 9.1199822 43.695588 11.796622 48.556062 11.919922 47.101562 C 10.578722 45.746462 9.2012031 41.683888 11.470703 45.304688 C 13.503503 48.746488 16.246253 50.979828 20.251953 51.798828 C 22.442053 52.517548 24.244022 54.986859 26.169922 54.443359 C 27.258922 57.213159 22.942143 59.873631 26.314453 62.457031 C 28.074953 65.072331 31.029888 66.787284 29.429688 70.458984 C 28.310588 74.044984 28.790136 77.953322 27.822266 81.294922 C 27.521876 83.328622 30.760969 88.490822 30.480469 84.357422 C 31.426039 81.485022 31.399993 78.323262 33.626953 76.289062 C 36.674053 76.312313 34.209745 73.128922 37.234375 73.544922 C 39.079975 71.210922 39.613816 68.424847 42.728516 67.498047 C 43.100566 64.664947 47.907066 60.325756 42.941406 59.222656 C 41.591806 58.580876 38.117212 58.351906 38.382812 58.035156 C 38.920842 55.223956 33.8907 54.423637 31.75 53.273438 C 28.9392 51.348537 24.714909 56.470441 23.724609 52.056641 C 23.133729 50.667941 20.973897 50.644853 21.966797 48.501953 C 20.177397 50.218953 16.67745 49.696659 17.59375 46.380859 C 18.98535 43.588159 24.329534 43.457436 25.240234 46.816406 C 23.975834 43.111806 27.683588 40.227497 29.742188 37.591797 C 30.161348 36.331997 32.651922 35.249628 31.794922 36.923828 C 33.255122 36.873018 35.4689 34.330606 32.875 35.503906 C 32.8383 33.185506 30.601953 33.844528 29.876953 34.173828 C 31.220753 32.116128 38.120369 33.242376 35.230469 29.878906 C 32.991169 29.003506 33.179063 23.894334 30.914062 26.740234 C 31.104662 24.986834 26.303403 21.553741 26.408203 24.494141 C 26.994193 27.125241 26.514618 30.156259 25.267578 31.880859 C 25.007328 28.025459 18.192059 28.877931 19.068359 24.769531 C 20.337859 22.811431 21.821591 20.104156 21.962891 20.347656 C 24.237891 19.509616 26.068441 17.07125 23.431641 15.46875 C 23.290721 16.86545 21.447731 19.746939 21.707031 16.261719 C 20.001231 18.212919 20.390569 13.157212 18.792969 12.632812 z M 73.404297 13.921875 C 73.329369 13.925913 73.273916 13.946548 73.244141 13.986328 L 73.242188 13.984375 C 69.246287 14.927435 67.662247 18.610356 65.685547 21.660156 C 62.771647 22.927656 62.883362 28.371412 66.138672 26.632812 C 67.009952 28.100912 65.528596 30.413741 68.066406 28.494141 C 70.113406 25.880541 68.424743 21.653759 71.908203 20.005859 C 72.161943 21.287259 68.695804 26.071556 72.746094 25.285156 C 76.407694 25.418446 70.084424 25.638021 71.865234 27.894531 C 70.014934 26.835331 70.975707 30.786687 68.560547 29.867188 C 66.468247 30.965287 65.096872 29.357073 65.576172 27.595703 C 63.930172 28.522113 66.093628 31.135869 63.236328 31.292969 C 62.596278 33.485769 57.332972 33.155872 60.326172 35.388672 C 61.655072 38.711472 55.37325 35.596484 57.15625 39.583984 C 58.68165 43.526984 61.878781 38.277972 63.175781 37.263672 C 65.678281 35.390872 69.386666 40.456231 67.134766 40.644531 C 69.659866 40.317671 69.142241 38.000416 67.119141 37.103516 C 66.026441 34.369416 70.576619 38.445506 70.324219 39.816406 C 71.930219 42.717806 71.270117 36.845593 72.904297 39.445312 C 72.713497 42.187613 79.477847 40.088964 76.248047 43.583984 C 73.471147 44.123604 70.738356 42.893621 68.347656 43.681641 C 66.122556 43.662641 66.233928 41.369322 65.423828 40.794922 C 62.593428 41.016782 59.096072 40.991246 57.201172 43.197266 C 55.152172 45.909566 52.196388 49.702316 54.429688 53.166016 C 56.664588 58.298216 62.206778 53.431901 65.392578 56.462891 C 66.339508 57.726591 64.572153 59.228756 66.689453 60.597656 C 67.486173 63.513656 65.785407 66.282813 67.742188 69.070312 C 68.753987 71.691812 69.382437 75.61425 73.148438 73.21875 C 77.134237 70.90455 76.072628 66.640144 79.361328 64.277344 C 76.759028 59.418444 82.544681 57.28745 83.988281 53.34375 C 80.834281 53.78923 78.023719 50.754672 77.261719 47.701172 C 75.936819 46.217972 76.279756 44.032129 77.759766 46.818359 C 79.794066 48.720059 79.836509 54.364038 83.599609 51.460938 C 85.320009 50.766697 90.018891 48.117209 86.275391 46.912109 C 83.862391 48.598309 81.200741 41.872938 84.744141 45.773438 C 87.320141 46.827937 89.123047 47.456837 89.123047 43.960938 L 89.123047 15.513672 C 88.320647 16.304772 86.25925 17.765822 85.21875 16.794922 C 83.42835 17.035452 81.066206 20.395344 81.628906 17.146484 C 80.072706 17.047054 81.348957 20.060331 79.210938 20.144531 C 78.995648 21.693331 77.05075 20.431544 77.78125 21.902344 C 76.28065 20.875344 75.01191 17.632869 77.96875 19.667969 C 82.35975 18.396969 75.072166 15.528837 74.509766 14.835938 C 75.337034 14.644706 73.928792 13.893608 73.404297 13.921875 z M 37.003906 14.835938 C 35.542406 16.010838 39.782406 16.232038 37.003906 14.835938 z M 17.480469 15.46875 C 15.845869 17.11845 20.083769 16.98535 17.480469 15.46875 z M 26.958984 17.103516 C 25.721084 19.060016 28.787984 17.825816 26.958984 17.103516 z M 54.060547 19.417969 C 52.611347 21.027669 50.699169 18.993373 50.667969 20.376953 C 50.930619 20.795013 51.982409 23.777972 54.287109 21.576172 C 55.524109 21.073022 55.036717 19.806269 54.060547 19.417969 z M 23.205078 20.376953 C 20.456278 22.693053 27.873089 22.906348 23.787109 20.642578 L 23.205078 20.376953 z M 59.466797 26.791016 C 57.487697 28.036116 60.416358 30.679775 59.423828 31.921875 C 58.183728 34.006475 64.031903 31.776441 60.908203 30.113281 C 60.685633 28.684381 59.078297 26.940216 59.466797 26.791016 z M 58.130859 29.300781 C 55.373459 30.052901 57.505802 33.934604 58.482422 30.277344 C 58.537322 30.065304 58.610889 29.293741 58.130859 29.300781 z M 36.052734 32.115234 C 33.487534 33.802834 35.655126 35.485863 37.535156 34.726562 C 37.149196 33.708362 36.070134 33.068334 36.052734 32.115234 z M 84.507812 34.951172 C 85.787813 35.574392 82.163284 36.639528 84.458984 37.736328 C 85.794984 39.252128 85.290651 42.504072 83.119141 40.201172 C 83.522581 37.629972 80.175212 35.711072 84.507812 34.951172 z M 77.925781 34.972656 C 77.752121 36.624456 81.618259 39.191516 77.449219 38.353516 C 75.244419 38.603046 71.943103 38.289272 74.720703 35.638672 C 75.598353 35.130332 77.902325 37.391794 76.703125 35.277344 C 77.128255 35.251174 77.525251 35.097086 77.925781 34.972656 z M 65.189453 38.548828 C 63.581353 39.548378 66.301453 40.314828 65.189453 38.548828 z M 24.810547 47.865234 C 24.539437 48.737854 29.897872 49.622599 26.201172 48.224609 L 25.648438 48.037109 L 24.810547 47.865234 z M 28.972656 49.109375 C 27.347756 50.700875 32.320456 49.584855 28.972656 49.109375 z M 83.310547 63.703125 C 79.779847 63.791025 80.249768 72.577906 82.710938 67.378906 C 82.944338 66.250706 83.879317 64.761225 83.310547 63.703125 z "
     id="path51" />
  <g
     transform="translate(1.0780207,-0.96969372)"
     id="g53">
    <use
       xlink:href="#SVGCleanerId_0"
       transform="matrix(1.3572,0,0,1.3554,-73.27,-53.872)"
       id="use55"
       x="0"
       y="0"
       width="100%"
       height="100%" />
    <use
       xlink:href="#SVGCleanerId_0"
       transform="matrix(1.0745,0,0,1.073,-39.514,-14.09)"
       id="use57"
       x="0"
       y="0"
       width="100%"
       height="100%" />
    <use
       xlink:href="#SVGCleanerId_0"
       transform="matrix(1.5834,0,0,1.5813,-53.33,-72.39)"
       id="use59"
       x="0"
       y="0"
       width="100%"
       height="100%" />
    <use
       xlink:href="#SVGCleanerId_0"
       transform="matrix(1.0219,0,0,1.0206,-15.636,-16.922)"
       id="use61"
       style="opacity:0.6"
       x="0"
       y="0"
       width="100%"
       height="100%" />
    <use
       xlink:href="#SVGCleanerId_0"
       transform="matrix(0.79409,0,0,0.79303,-44.28,-21.768)"
       id="use63"
       style="opacity:0.6"
       x="0"
       y="0"
       width="100%"
       height="100%" />
    <use
       xlink:href="#SVGCleanerId_0"
       transform="matrix(0.56552,0,0,0.56477,38.457,3.262)"
       id="use65"
       style="opacity:0.6"
       x="0"
       y="0"
       width="100%"
       height="100%" />
    <path
       d="m 7.1767,47.702 c 28.099,-19.414 65.211,-20.473 81.823,1.588"
       id="path67"
       style="fill:none;stroke:url(#radialGradient3471);stroke-width:2"
       inkscape:connector-curvature="0" />
    <path
       d="M 27.677,88.824 C 26.616,73.292 56.129,28.641 88.823,20.875"
       id="path69"
       style="fill:none;stroke:url(#radialGradient3468);stroke-width:2"
       inkscape:connector-curvature="0" />
    <path
       d="M 7,29.523 C 58.25,38.348 38.634,89 38.634,89"
       id="path71"
       style="fill:none;stroke:url(#radialGradient3465);stroke-width:2"
       inkscape:connector-curvature="0" />
    <path
       d="m 7.1767,67.821 c 51.25,-11.472 82,-30.179 82,-30.179"
       id="path73"
       style="opacity:0.6;fill:none;stroke:url(#radialGradient3462);stroke-width:1.5"
       inkscape:connector-curvature="0" />
  </g>
  <path
     style="opacity:1;fill:#ffffff;fill-opacity:1;stroke:#000000;stroke-width:1;stroke-linecap:butt;stroke-linejoin:miter;stroke-miterlimit:4;stroke-dasharray:none;stroke-dashoffset:0;stroke-opacity:0.04705882"
     d="m 18.697674,8.465116 c -5.668837,0 -10.2325578,4.563721 -10.2325578,10.232558 l 0,58.604652 c 0,5.668837 4.5637208,10.232558 10.2325578,10.232558 l 58.604652,0 c 5.668837,0 10.232558,-4.563721 10.232558,-10.232558 l 0,-58.604652 c 0,-5.668837 -4.563721,-10.232558 -10.232558,-10.232558 l -58.604652,0 z m 2.043969,2.757995 54.516714,0 c 5.273338,0 9.518532,4.245194 9.518532,9.518532 l 0,54.516714 c 0,5.273338 -4.245194,9.518532 -9.518532,9.518532 l -54.516714,0 c -5.273338,0 -9.518533,-4.245194 -9.518533,-9.518532 l 0,-54.516714 c 0,-5.273338 4.245195,-9.518532 9.518533,-9.518532 z"
     id="rect4449"
     inkscape:connector-curvature="0" />
</svg>
